Coordinates
version=1
nRows=10
nColumns=40
inDegrees=yes

Units are S.I. units (second, meters, Newtons, ...)
Angles are in degrees.

endheader
time	pelvis_tilt	pelvis_list	pelvis_rotation	pelvis_tx	pelvis_ty	pelvis_tz	hip_flexion_r	hip_adduction_r	hip_rotation_r	knee_angle_r	knee_angle_r_beta	ankle_angle_r	subtalar_angle_r	mtp_angle_r	hip_flexion_l	hip_adduction_l	hip_rotation_l	knee_angle_l	knee_angle_l_beta	ankle_angle_l	subtalar_angle_l	mtp_angle_l	lumbar_extension	lumbar_bending	lumbar_rotation	arm_flex_r	arm_add_r	arm_rot_r	elbow_flex_r	pro_sup_r	wrist_flex_r	wrist_dev_r	arm_flex_l	arm_add_l	arm_rot_l	elbow_flex_l	pro_sup_l	wrist_flex_l	wrist_dev_l
     25.75328571	     -4.22352792	     -3.80733515	     -2.46209127	      1.05742400	      0.93132398	      0.42974020	     25.32107503	     -3.36678489	    -13.67664587	     14.79923250	     14.79923250	      0.37761510	      4.94285420	      4.51766192	      8.42451408	     -5.19933649	    -12.64620912	     17.09295297	     17.09295297	     13.55532835	     -8.30946798	     -7.76799644	    -10.62837062	     -0.07766110	      0.24821228	     -1.11350070	    -15.22537507	     -9.69063317	     28.57994153	     47.22975616	      0.00000000	      0.00000000	     17.24703233	    -15.88762079	     -3.83321307	     40.16808799	     45.75992387	      0.00000000	      0.00000000
     25.76657143	     -4.11286834	     -3.43848697	     -2.52120687	      1.05913152	      0.93082381	      0.43078911	     24.83791360	     -3.51082477	    -12.97692951	     15.87525949	     15.87525949	      0.85480119	      4.00873408	      3.90931090	      7.51238131	     -4.79072128	    -12.87954826	     16.53822770	     16.53822770	     13.82176398	     -7.90768451	     -7.76236186	    -10.52337398	     -0.33151222	      0.06241306	     -1.24705032	    -15.24586014	     -9.88275970	     28.98451179	     47.21490748	      0.00000000	      0.00000000	     17.04063783	    -15.90951277	     -3.89186040	     40.10840257	     45.76858923	      0.00000000	      0.00000000
     25.77985714	     -4.03324403	     -3.13393498	     -2.52875976	      1.06102401	      0.93022996	      0.43195539	     24.19647900	     -3.54542228	    -12.22162483	     16.62390643	     16.62390643	      1.23917139	      2.97755001	      3.19891819	      6.69680142	     -4.47756325	    -13.08389469	     16.12061240	     16.12061240	     14.11821249	     -7.50511993	     -7.76680193	    -10.33194120	     -0.50866478	     -0.11971485	     -1.61077080	    -15.23269720	    -10.18135099	     29.71493786	     47.18577400	      0.00000000	      0.00000000	     16.61214898	    -15.84626472	     -4.01580140	     40.08859964	     45.78401288	      0.00000000	      0.00000000
     25.79314286	     -3.91862909	     -2.93404951	     -2.51483631	      1.06306897	      0.92959528	      0.43330730	     23.42053522	     -3.45618541	    -11.44279310	     17.13221442	     17.13221442	      1.33019320	      1.89693986	      1.43650673	      5.93641746	     -4.34431728	    -13.37520217	     15.93353235	     15.93353235	     14.62451464	     -6.87193103	     -7.58698885	    -10.22041932	     -0.53429289	     -0.06511130	     -2.60991552	    -15.25343895	    -11.07039356	     32.04078258	     47.07079393	      0.00000000	      0.00000000	     16.21159475	    -15.58909458	     -4.52059792	     40.34716095	     45.86288654	      0.00000000	      0.00000000
     25.80642857	     -3.78106015	     -2.74773011	     -2.49939933	      1.06520411	      0.92902652	      0.43467115	     22.73269134	     -3.45940343	    -10.95770274	     17.80059604	     17.80059604	      2.06840307	      1.48023379	      1.02891521	      5.12811110	     -4.17910809	    -13.43916571	     15.67907080	     15.67907080	     14.92887516	     -6.65482497	     -7.55615922	    -10.08999949	     -0.53973834	     -0.17161057	     -2.63596661	    -15.31179079	    -11.16106406	     32.26023076	     47.05964365	      0.00000000	      0.00000000	     15.78439347	    -15.51016364	     -4.53922520	     40.12401948	     45.86080750	      0.00000000	      0.00000000
     25.81971429	     -3.77435293	     -2.61740522	     -2.47904955	      1.06727702	      0.92837128	      0.43614305	     22.12327827	     -3.40530593	    -10.53728512	     18.17549596	     18.17549596	      2.81110266	      1.24735629	      0.70050502	      4.54462290	     -4.10292738	    -13.44200303	     15.57309312	     15.57309312	     15.21356919	     -6.55403971	     -7.56108159	     -9.81226647	     -0.45917392	     -0.20150843	     -2.70687262	    -15.31710263	    -11.21308265	     32.40276378	     47.05330363	      0.00000000	      0.00000000	     15.26744202	    -15.31003573	     -4.53562944	     39.93101716	     45.85365284	      0.00000000	      0.00000000
     25.83300000	     -3.58169776	     -2.42851471	     -2.52700551	      1.06941133	      0.92805336	      0.43788688	     21.59601681	     -3.40132501	     -9.86207912	     18.88299194	     18.88299194	      3.60487761	      0.52834896	      0.23279146	      3.59016007	     -3.94361764	    -13.66143722	     15.16246445	     15.16246445	     15.47550918	     -6.14471661	     -7.28538295	     -9.77231705	     -0.49032121	     -0.35254590	     -2.52345146	    -15.36892469	    -11.35713765	     33.03760287	     47.02949106	      0.00000000	      0.00000000	     14.73940427	    -15.31356017	     -4.66743967	     39.70175261	     45.86267804	      0.00000000	      0.00000000
     25.84628571	     -3.54178754	     -2.35531658	     -2.55355206	      1.07139475	      0.92772585	      0.43980906	     21.10597876	     -3.22798119	     -9.16059837	     19.14297520	     19.14297520	      3.95326905	     -0.43980815	     -0.86966546	      3.07035801	     -4.05099500	    -14.08863846	     15.35735891	     15.35735891	     16.59946998	     -5.09473091	     -5.41909165	     -9.65203436	     -0.38090910	     -0.30151304	     -3.20185986	    -15.37239892	    -11.78753583	     35.68761425	     46.87138555	      0.00000000	      0.00000000	     14.14134600	    -14.93055924	     -5.91377058	     39.85020202	     46.00922427	      0.00000000	      0.00000000
     25.85957143	     -3.49217040	     -2.37069234	     -2.62998257	      1.07323884	      0.92750967	      0.44185532	     20.72825083	     -3.07196681	     -8.89221220	     19.54709765	     19.54709765	      4.66093401	     -0.57536888	     -1.20400946	      2.54136437	     -4.19024306	    -14.13335369	     15.43705224	     15.43705224	     16.75276213	     -5.16332417	     -5.28572912	     -9.52661793	     -0.15864235	     -0.15222219	     -2.91909855	    -15.43385273	    -11.80656940	     35.89527830	     46.86122490	      0.00000000	      0.00000000	     13.59664564	    -14.74887300	     -5.93512531	     39.57966174	     46.00362242	      0.00000000	      0.00000000
     25.87285714	     -3.45184961	     -2.41380430	     -2.71458946	      1.07498463	      0.92745245	      0.44404642	     20.39989606	     -2.89183531	     -8.64697911	     19.92148097	     19.92148097	      5.29390653	     -0.70027625	     -1.49657603	      2.08316940	     -4.38304467	    -14.16740723	     15.62126658	     15.62126658	     16.86397587	     -5.29328759	     -5.13180599	     -9.39635633	      0.06868227	      0.03133709	     -2.56761168	    -15.46069292	    -11.81878385	     36.15677859	     46.85082339	      0.00000000	      0.00000000	     13.03493106	    -14.52892653	     -5.95146099	     39.33361295	     45.99713865	      0.00000000	      0.00000000
